PathFileType	4	(X/Y/Z)	pose_F01_0-96.trc
DataRate	CameraRate	NumFrames	NumMarkers	Units	OrigDataRate	OrigDataStartFrame	OrigNumFrames
30	30	5	21	m	30	0	96
Frame#	Time	CHip			RHip			RKnee			RAnkle			RBigToe			RSmallToe			RHeel			LHip			LKnee			LAnkle			LBigToe			LSmallToe			LHeel			Neck			Nose			RShoulder			RElbow			RWrist			LShoulder			LElbow			LWrist			
		X1	Y1	Z1	X2	Y2	Z2	X3	Y3	Z3	X4	Y4	Z4	X5	Y5	Z5	X6	Y6	Z6	X7	Y7	Z7	X8	Y8	Z8	X9	Y9	Z9	X10	Y10	Z10	X11	Y11	Z11	X12	Y12	Z12	X13	Y13	Z13	X14	Y14	Z14	X15	Y15	Z15	X16	Y16	Z16	X17	Y17	Z17	X18	Y18	Z18	X19	Y19	Z19	X20	Y20	Z20	X21	Y21	Z21	
0	0.0	-0.15118392453183896	1.802946244052554	-0.5249305649394591	-0.16189378567601856	1.8008077719000448	-0.4671850324623092	-0.16111460630458202	1.6988319679945876	-0.46689034839868215	-0.16689350220196125	1.57711560075648	-0.4413535287827655							-0.15292773214210556	1.5691030336788354	-0.42878762798302195	-0.1421512301458899	1.8033018791366469	-0.6016564466720821	-0.12054259892890204	1.691613137043865	-0.5814589993936128	-0.1415374842335414	1.5802870470122832	-0.5399832396668154	-0.18476105009219018	1.5489462211536316	-0.5608769799465576	-0.17275431523457732	1.5609839390822204	-0.573156151096218	-0.1366428406269629	1.5727325862997694	-0.4978750475833523	-0.13615505980429315	1.9777926745863545	-0.5712120233777898	-0.16603956812943932	2.0439866954421406	-0.5948574549893753	-0.15756148842697004	1.966980595059657	-0.48803028422853384	-0.1687896474331966	1.915616029753939	-0.4559946461337821	-0.18608713094636448	1.8372739426335454	-0.44421032435786484	-1.664112235676866	1.8902226042021009	1.0348695830046903	-0.09777918054009868	1.8855051417101207	-0.6917410155160714	-0.1301067851057919	1.8048183096259227	-0.6845417097099572
1	0.03333333333333333	-0.15198856790292564	1.8058254130621458	-0.5284419001771498	-0.1627949037035967	1.8037844565211043	-0.4708443642130148	-0.16115303729533373	1.6989629790257181	-0.4667936412396672	-0.16689350220196125	1.57711560075648	-0.4413535287827655							-0.15294321787577161	1.569324584688487	-0.4288058612891338	-0.14209056416784596	1.8061457453514578	-0.6021114491998217	-0.12239049902955035	1.6927593836132333	-0.5795570676714876	-0.14147493537836678	1.5800943149062305	-0.5400458731179942	-0.184757836894374	1.5489044195133341	-0.5608546635261886	-0.17250073460722248	1.5594680647722916	-0.5733468163659549	-0.13582031049814314	1.5715751996866585	-0.5027910181622003	-0.13617378913704223	1.9778056274303732	-0.5711571601537053	-0.1660665816793348	2.0438509559938662	-0.5948744029839738	-0.15741493209625165	1.968145943866681	-0.4880310376661901	-0.1685929523482837	1.9127295666919755	-0.4553005346080415	-0.1860098427362861	1.8355920178026608	-0.4439487320183108	-1.663966122705521	1.8901906479352337	1.0346223936488932	-0.10008207956608704	1.8868510829700873	-0.6895507124336423	-0.12932783277635257	1.8074003954360875	-0.68181372956079
2	0.06666666666666667	-0.15279321127401232	1.8087045820717376	-0.5319532354148404	-0.16369602173117484	1.8067611411421638	-0.4745036959637204	-0.16119146828608544	1.6990939900568487	-0.46669693408065227	-0.16689350220196125	1.57711560075648	-0.4413535287827655							-0.15295870360943764	1.5695461356981386	-0.4288240945952457	-0.14202989818980202	1.8089896115662687	-0.6025664517275614	-0.12423839913019866	1.6939056301826017	-0.5776551359493625	-0.14141238652319216	1.579901582800178	-0.5401085065691731	-0.18475462369655782	1.5488626178730367	-0.5608323471058196	-0.17224715397986765	1.5579521904623628	-0.5735374816356917	-0.13499778036932336	1.5704178130735476	-0.5077069887410482	-0.1361925184697913	1.977818580274392	-0.5711022969296209	-0.16609359522923028	2.043715216545592	-0.5948913509785723	-0.15726837576553326	1.969311292673705	-0.48803179110384637	-0.1683962572633708	1.9098431036300119	-0.45460642308230087	-0.18593255452620772	1.8339100929717762	-0.4436871396787568	-1.6638200097341758	1.8901586916683666	1.034375204293096	-0.1023849785920754	1.8881970242300539	-0.6873604093512132	-0.1285488804469132	1.8099824812462524	-0.6790857494116228
3	0.1	-0.153597854645099	1.8115837510813293	-0.5354645706525311	-0.16459713975875298	1.8097378257632233	-0.478163027714426	-0.16122989927683715	1.6992250010879792	-0.46660022692163733	-0.16689350220196125	1.57711560075648	-0.4413535287827655							-0.15297418934310367	1.5697676867077903	-0.4288423279013575	-0.14196923221175808	1.8118334777810796	-0.6030214542553011	-0.12608629923084697	1.69505187675197	-0.5757532042272373	-0.14134983766801754	1.5797088506941253	-0.5401711400203519	-0.18475141049874164	1.5488208162327393	-0.5608100306854507	-0.1719935733525128	1.556436316152434	-0.5737281469054286	-0.13417525024050359	1.5692604264604366	-0.5126229593198962	-0.13621124780254038	1.9778315331184106	-0.5710474337055365	-0.16612060877912577	2.0435794770973175	-0.5949082989731708	-0.15712181943481487	1.970476641480729	-0.48803254454150263	-0.16819956217845788	1.9069566405680483	-0.45391231155656026	-0.18585526631612934	1.8322281681408916	-0.44342554733920275	-1.6636738967628306	1.8901267354014994	1.034128014937299	-0.10468787761806377	1.8895429654900204	-0.6851701062687842	-0.12776992811747384	1.8125645670564172	-0.6763577692624556
4	0.13333333333333333	-0.1544024980161857	1.814462920090921	-0.5389759058902217	-0.16549825778633112	1.8127145103842828	-0.4818223594651316	-0.16126833026758886	1.6993560121191098	-0.4665035197626224	-0.16689350220196125	1.57711560075648	-0.4413535287827655							-0.15298967507676972	1.569989237717442	-0.42886056120746935	-0.14190856623371415	1.8146773439958905	-0.6034764567830407	-0.12793419933149527	1.6961981233213383	-0.5738512725051121	-0.14128728881284291	1.5795161185880726	-0.5402337734715308	-0.18474819730092545	1.5487790145924418	-0.5607877142650817	-0.17173999272515797	1.554920441842505	-0.5739188121751655	-0.1333527201116838	1.5681030398473257	-0.5175389298987442	-0.13622997713528945	1.9778444859624293	-0.570992570481452	-0.16614762232902125	2.043443737649043	-0.5949252469677693	-0.15697526310409649	1.971641990287753	-0.4880332979791589	-0.16800286709354498	1.9040701775060846	-0.45321820003081964	-0.18577797810605096	1.830546243310007	-0.4431639549996487	-1.6519037516115735	1.8882894373006058	1.0144886805087054	-0.10699077664405213	1.890888906749987	-0.6829798031863551	-0.1269909757880345	1.815146652866582	-0.6736297891132884
